<svg id="Layer_3" enable-background="new 0 0 64 64" height="512" viewBox="0 0 64 64" width="512" xmlns="http://www.w3.org/2000/svg"><g><circle cx="32" cy="32" fill="#c7e2fc" r="30"/><circle cx="32" cy="32" fill="#ebf7fe" r="23"/><path d="m27 28 1 19c0 1.657-1.343 3-3 3-1.657 0-3-1.343-3-3l1-19" fill="#a8b0bc"/><path d="m42 29 1 18c0 1.657-1.343 3-3 3-1.657 0-3-1.343-3-3l1-18" fill="#a8b0bc"/><ellipse cx="25" cy="22" fill="#c1c8d1" rx="6" ry="7"/><path d="m44 15v7h-3v-7h-2v7h-3v-7h-2v9c0 3.309 2.691 6 6 6s6-2.691 6-6v-9zm-4 13c-2.206 0-4-1.794-4-4h8c0 2.206-1.794 4-4 4z" fill="#c1c8d1"/><g><path d="m32 59v-2c13.785 0 25-11.215 25-25h2c0 14.888-12.112 27-27 27z" fill="#fff"/></g><g><path d="m7 32h-2c0-14.888 12.112-27 27-27v2c-13.785 0-25 11.215-25 25z" fill="#fff"/></g></g></svg>