<svg id="Layer_3" enable-background="new 0 0 64 64" height="512" viewBox="0 0 64 64" width="512" xmlns="http://www.w3.org/2000/svg"><g><circle cx="32" cy="32" fill="#92a6bf" r="30"/><circle cx="32" cy="32" fill="#c7e2fb" r="24"/><path d="m51 19c0-.578-.019-1.151-.053-1.722-4.391-5.643-11.242-9.278-18.947-9.278-13.255 0-24 10.745-24 24 0 7.711 3.641 14.568 9.293 18.959 18.773-.842 33.707-14.828 33.707-31.959z" fill="#ebf7fe"/><path d="m46 31c0-3.314-2.686-6-6-6-1.539 0-2.938.584-4 1.537-1.062-.953-2.461-1.537-4-1.537-3.314 0-6 2.686-6 6 0 .775.152 1.513.42 2.194-1.466 1.093-2.42 2.836-2.42 4.806 0 3.314 2.686 6 6 6 1.308 0 2.514-.423 3.5-1.133.986.71 2.192 1.133 3.5 1.133 3.314 0 6-2.686 6-6 0-.582-.087-1.143-.242-1.675 1.925-.999 3.242-3.007 3.242-5.325z" fill="#eceaec"/><path d="m54 46v-24.378c2.891-1.107 5-4.546 5-8.622 0-4.971-3.134-9-7-9s-7 4.029-7 9c0 4.076 2.109 7.515 5 8.622v24.378z" fill="#dad8db"/><path d="m52 60c-2.209 0-4-1.791-4-4v-10h8v10c0 2.209-1.791 4-4 4z" fill="#e2a978"/><path d="m11 60c-2.209 0-4-1.791-4-4v-10h8v10c0 2.209-1.791 4-4 4z" fill="#e2a978"/><path d="m9 46v-26c-2.209 0-4-1.791-4-4v-10c0-1.105.895-2 2-2 1.105 0 2 .895 2 2v8c0 1.105.895 2 2 2 1.105 0 2-.895 2-2v-8c0-1.105.895-2 2-2 1.105 0 2 .895 2 2v10c0 2.209-1.791 4-4 4v26z" fill="#dad8db"/><path d="m39 36c0-3.314-2.686-6-6-6-1.539 0-2.938.584-4 1.537-1.062-.953-2.461-1.537-4-1.537-3.314 0-6 2.686-6 6 0 .775.152 1.513.42 2.194-1.466 1.093-2.42 2.836-2.42 4.806 0 3.314 2.686 6 6 6 1.308 0 2.514-.423 3.5-1.133.986.71 2.192 1.133 3.5 1.133 3.314 0 6-2.686 6-6 0-.582-.087-1.143-.242-1.675 1.925-.999 3.242-3.007 3.242-5.325z" fill="#fff"/><circle cx="28" cy="40" fill="#ffc26f" r="3"/><path d="m41 20-1.293 1.293c-.453.453-1.067.707-1.707.707-.64 0-1.254-.254-1.707-.707l-.586-.586c-.453-.453-1.067-.707-1.707-.707-.64 0-1.254.254-1.707.707l-.586.586c-.453.453-1.067.707-1.707.707-.64 0-1.254-.254-1.707-.707l-.586-.586c-.453-.453-1.067-.707-1.707-.707-.64 0-1.254.254-1.707.707l-1.293 1.293v-6l1.293-1.293c.453-.453 1.067-.707 1.707-.707.64 0 1.254.254 1.707.707l.586.586c.453.453 1.067.707 1.707.707.64 0 1.254-.254 1.707-.707l.586-.586c.453-.453 1.067-.707 1.707-.707.64 0 1.254.254 1.707.707l.586.586c.453.453 1.067.707 1.707.707.64 0 1.254-.254 1.707-.707l1.293-1.293z" fill="#ff8086"/></g></svg>