<svg id="Layer_3" enable-background="new 0 0 64 64" height="512" viewBox="0 0 64 64" width="512" xmlns="http://www.w3.org/2000/svg"><g><path d="m36 14h26v46h-26z" fill="#c3ddfe" transform="matrix(-1 0 0 -1 98 74)"/><path d="m36 20h26v32h-26z" fill="#edf4ff" transform="matrix(-1 0 0 -1 98 72)"/><path d="m15 58h23.98v4h-23.98z" fill="#dad8db"/><path d="m43.75 55.69c1.473-4.418 3.789-8.508 6.819-12.044l1.411-1.646h-49.98l1.411 1.646c3.031 3.536 5.347 7.626 6.819 12.044.46 1.38 1.751 2.31 3.205 2.31h27.11c1.454 0 2.745-.93 3.205-2.31z" fill="#eceaec"/><path d="m40 2h18v6h-18z" fill="#c3ddfe"/><path d="m40 8-4 6h26l-4-6z" fill="#edf4ff"/><path d="m44 20v11c0 1.105.895 2 2 2 1.105 0 2-.895 2-2v-2c0-1.105.895-2 2-2 1.105 0 2 .895 2 2v8c0 1.105.895 2 2 2 1.105 0 2-.895 2-2v-4c0-1.657 1.343-3 3-3 1.657 0 3-1.343 3-3v-7z" fill="#dad8db"/><path d="m48.874 42c.082-.32.126-.655.126-1 0-2.209-1.791-4-4-4-.116 0-.225.024-.338.034-.708-.636-1.635-1.034-2.662-1.034-.951 0-1.813.346-2.5.901-.687-.555-1.549-.901-2.5-.901-.18 0-.352.03-.526.053-.685-1.219-1.976-2.053-3.474-2.053s-2.789.834-3.474 2.053c-.174-.023-.346-.053-.526-.053-1.202 0-2.267.541-3 1.38-.733-.839-1.798-1.38-3-1.38-.692 0-1.333.192-1.9.501-.733-.908-1.842-1.501-3.1-1.501s-2.367.593-3.1 1.501c-.567-.309-1.208-.501-1.9-.501-1.498 0-2.789.834-3.474 2.053-.174-.023-.346-.053-.526-.053-2.209 0-4 1.791-4 4z" fill="#ffc26f"/><path d="m6 21-4 4 11 11c.692 0 1.333.192 1.9.501.733-.908 1.842-1.501 3.1-1.501s2.367.593 3.1 1.501c.088-.048.18-.087.272-.129z" fill="#a3a2a4"/><g fill="#ffc26f"><path d="m30 20c0-1.105-.895-2-2-2s-2 .895-2 2 .895 2 2 2c0 1.105.895 2 2 2s2-.895 2-2-.895-2-2-2z"/><path d="m26 31c0 1.105-.895 2-2 2s-2-.895-2-2 .895-2 2-2c0-1.105.895-2 2-2s2 .895 2 2-.895 2-2 2z"/></g></g></svg>