<svg id="Capa_1" enable-background="new 0 0 497 497" height="512" viewBox="0 0 497 497" width="512" xmlns="http://www.w3.org/2000/svg"><g><path d="m141.146 105.415c-36.283 0-65.697 29.414-65.697 65.697 0 31.006 21.482 56.983 50.373 63.885v-30.204c-12.789-5.825-21.681-18.711-21.681-33.681 0-20.437 16.567-37.005 37.005-37.005 15.516 0 28.794 9.554 34.292 23.097h29.916c-6.383-29.602-32.698-51.789-64.208-51.789z" fill="#ffeed2"/><path d="m136.622 270.944c9.866-33.159 44.027-39.592 44.027-39.592s-51.169-58.342-36.339-80.768c14.831-22.427 46.837-2.008 46.837-2.008s-16.935-77.701 27.423-82.596 44.774 74.628 44.774 74.628 26.783-26.906 46.147-8.253-17.852 86.749-17.852 86.749 28.844-35.253 45.703-5.044c16.859 30.21-45.691 87.713-45.691 87.713l-42.977 33.998-50.011-23.736c0-.001-71.907-7.932-62.041-41.091z" fill="#15a977"/><path d="m337.342 214.06c-16.859-30.209-45.703 5.044-45.703 5.044s37.216-68.096 17.852-86.749-46.147 8.253-46.147 8.253-.416-79.524-44.774-74.628c-13.928 1.537-21.811 10.254-26.075 21.488.994-.199 2.012-.371 3.075-.488 25.87-2.855 36.794 23.004 41.406 45.056 2.492 11.916 14.637 18.849 26.405 15.733 7.545-1.997 15.849-1.409 23.111 5.586 10.677 10.285 4.152 35.603-3.851 56.248-2.797 7.215 3.301 14.946 10.913 13.551 7.219-1.322 14.768 1.117 20.789 11.906 11.883 21.292-15.681 56.141-32.99 74.86l10.299-8.147c-.001-.001 62.549-57.503 45.69-87.713z" fill="#139a71"/><path d="m410.496 126.57c-36.283 0-65.697 29.414-65.697 65.697s29.413 65.697 65.697 65.697 65.697-29.413 65.697-65.697c-.001-36.284-29.414-65.697-65.697-65.697zm0 102.701c-20.437 0-37.005-16.568-37.005-37.005s16.568-37.005 37.005-37.005 37.005 16.568 37.005 37.005c-.001 20.438-16.568 37.005-37.005 37.005z" fill="#ffeed2"/><path d="m403.471 212.691-77.899-111.662c-1.656-2.374-5.049-2.682-7.117-.656-29.632 29.039-34.845 76.061-10.319 111.218 16.318 23.39 42.111 36.219 68.587 36.963z" fill="#f26e91"/><path d="m403.937 213.36-78.364-112.33c-1.652-2.368-5.042-2.691-7.102-.669-4.834 4.743-9.011 9.968-12.526 15.537l67.992 97.461h30z" fill="#e05c7e"/><path d="m217.783 237.996c-10.263-19.029-25.676-40.296-42.617-38.389-30.185 3.397-11.429 38.72-11.429 38.72s-42.508-53.25-64.185-43.901-8.981 40.169-8.981 40.169-64.535-26.656-75.628 10.924c-11.093 37.58 57.573 50.241 57.573 50.241s-27.398 15.986-14.272 35.608 77.736-2.009 77.736-2.009-34.931 19.475-11.429 38.72c23.502 19.244 82.876-25.921 82.876-25.921l38.625-31.421-15.371-44.359s-4.876-13.507-12.898-28.382" fill="#90de97"/><path d="m319.387 188.04c30.185 3.397 11.429 38.72 11.429 38.72s42.508-53.25 64.185-43.901 8.981 40.169 8.981 40.169 64.535-26.656 75.628 10.924-57.573 50.242-57.573 50.242 27.398 15.986 14.272 35.608c-13.126 19.621-77.736-2.009-77.736-2.009s34.931 19.476 11.429 38.72-82.876-25.921-82.876-25.921l-38.626-28.422 15.371-47.359s25.331-70.168 55.516-66.771z" fill="#b5ebb9"/><path d="m479.61 233.952c-6.336-21.465-30.103-21.971-49.325-18.46 8.908 2.442 16.216 7.927 19.325 18.46 11.093 37.58-57.573 50.242-57.573 50.242s27.398 15.986 14.272 35.608c-2.276 3.402-6.102 5.562-10.868 6.812 16.952 2.519 34.663 2.464 40.868-6.812 13.126-19.622-14.272-35.608-14.272-35.608s68.665-12.662 57.573-50.242z" fill="#90de97"/><path d="m151.157 269.063c-4.273 1.912-5.603 7.355-2.669 11.003 21.886 27.213 70.914 43.426 105.063 28.143 38.135-17.067 57.855-58.343 49.153-97.599-.977-4.405-5.784-6.782-9.903-4.939z" fill="#f26e91"/><path d="m302.704 210.611c-.977-4.405-5.784-6.782-9.903-4.939l-19.358 8.664c6.698 38.114-12.961 77.346-49.892 93.874-4.755 2.128-9.804 3.624-15.022 4.586 15.601 2.567 31.481 1.474 45.022-4.586 38.135-17.068 57.855-58.344 49.153-97.599z" fill="#e05c7e"/><path d="m248.5 310.992-200.791 19.162 69.922 68.146 130.869 17.457 131.417-17.457 69.374-68.146z" fill="#fafafa"/><path d="m373.602 431.237h-250.204c-10.015 0-18.134-7.119-18.134-17.134v-.213c0-10.015 8.119-18.134 18.134-18.134h250.204c10.015 0 18.134 8.119 18.134 18.134v.213c0 10.016-8.119 17.134-18.134 17.134z" fill="#7191f0"/><path d="m422.205 327.314-70.227 68.443 27.939 2.543 72.253-70.986z" fill="#eef0f0"/><path d="m373.602 395.757h-30c10.015 0 18.134 8.119 18.134 18.134v.213c0 10.015-8.119 17.134-18.134 17.134h30c10.015 0 18.134-7.119 18.134-17.134v-.213c0-10.015-8.119-18.134-18.134-18.134z" fill="#6084f0"/><g fill="#bd4d69"><path d="m240.49 286.518c-2.867 0-5.604-1.652-6.85-4.438l-6.709-14.991c-1.692-3.781.001-8.217 3.782-9.909 3.782-1.691 8.217.002 9.909 3.782l6.709 14.991c1.692 3.781-.002 8.217-3.782 9.909-.995.445-2.036.656-3.059.656z"/><path d="m273.546 261.185c-.889 0-1.793-.159-2.673-.495l-15.344-5.856c-3.87-1.477-5.81-5.812-4.333-9.681 1.477-3.87 5.813-5.809 9.681-4.333l15.344 5.856c3.87 1.477 5.81 5.812 4.332 9.681-1.139 2.99-3.986 4.828-7.007 4.828z"/><path d="m199.564 294.295c-.889 0-1.793-.159-2.673-.495-3.87-1.477-5.81-5.811-4.333-9.681l5.856-15.345c1.477-3.87 5.813-5.81 9.681-4.333 3.87 1.477 5.81 5.811 4.333 9.681l-5.856 15.345c-1.141 2.99-3.988 4.828-7.008 4.828z"/><path d="m325.207 175.241c-4.006 0-7.331-3.167-7.489-7.206-.163-4.139 3.061-7.626 7.2-7.788l14.114-.554c4.133-.146 7.626 3.061 7.788 7.2.163 4.139-3.061 7.626-7.2 7.788l-14.114.554c-.1.005-.199.006-.299.006z"/></g><path d="m477.144 330.154h-457.288c-10.966 0-19.856-8.89-19.856-19.856v-1.613c0-10.966 8.89-19.856 19.856-19.856h457.288c10.966 0 19.856 8.89 19.856 19.856v1.613c0 10.966-8.89 19.856-19.856 19.856z" fill="#7191f0"/><path d="m477.144 288.829h-30c10.966 0 19.856 8.89 19.856 19.856v1.613c0 10.966-8.89 19.856-19.856 19.856h30c10.966 0 19.856-8.89 19.856-19.856v-1.613c0-10.966-8.89-19.856-19.856-19.856z" fill="#6084f0"/></g></svg>